<svg width="26" height="25" viewBox="0 0 26 25" fill="none" xmlns="http://www.w3.org/2000/svg">
<path d="M13.0167 0C15.3327 0 17.4687 0.5707 19.4246 1.7121C21.3805 2.8535 22.9291 4.40215 24.0705 6.35805C25.2119 8.31394 25.7826 10.4499 25.7826 12.766C25.7826 15.5474 24.9709 18.0491 23.3475 20.2709C21.724 22.4928 19.6268 24.0304 17.0559 24.8836C16.7567 24.9391 16.5351 24.9003 16.391 24.7673C16.247 24.6343 16.1749 24.4681 16.1749 24.2686C16.1749 24.2354 16.1777 23.8115 16.1832 22.997C16.1888 22.1825 16.1916 21.4373 16.1916 20.7613C16.1916 19.6864 15.9034 18.8996 15.3272 18.4009C15.9588 18.3344 16.5268 18.2347 17.031 18.1017C17.5352 17.9687 18.056 17.7527 18.5935 17.4535C19.1309 17.1543 19.5797 16.7858 19.9399 16.3481C20.3 15.9104 20.5937 15.3286 20.8209 14.6027C21.0481 13.8769 21.1616 13.043 21.1616 12.1011C21.1616 10.7824 20.7239 9.64096 19.8485 8.67686C20.2585 7.66844 20.2142 6.53812 19.7155 5.2859C19.4052 5.18617 18.9564 5.24712 18.3691 5.46875C17.7818 5.69038 17.272 5.93418 16.8398 6.20013L16.2082 6.59907C15.1776 6.31095 14.1138 6.16689 13.0167 6.16689C11.9196 6.16689 10.8558 6.31095 9.8252 6.59907C9.6479 6.47717 9.41241 6.32757 9.11875 6.15027C8.82509 5.97296 8.36243 5.75964 7.73079 5.51031C7.09914 5.26097 6.62817 5.18617 6.31789 5.2859C5.81922 6.53812 5.77489 7.66844 6.18491 8.67686C5.30946 9.64096 4.87174 10.7824 4.87174 12.1011C4.87174 13.043 4.98533 13.8741 5.2125 14.5944C5.43967 15.3147 5.73056 15.8965 6.08517 16.3398C6.43978 16.783 6.88582 17.1543 7.42327 17.4535C7.96073 17.7527 8.48156 17.9687 8.98577 18.1017C9.48998 18.2347 10.0579 18.3344 10.6896 18.4009C10.2574 18.7999 9.98588 19.3706 9.87507 20.113C9.64235 20.2238 9.39302 20.307 9.12706 20.3624C8.8611 20.4178 8.54528 20.4455 8.17959 20.4455C7.8139 20.4455 7.45098 20.3264 7.09083 20.0881C6.73067 19.8498 6.42316 19.5035 6.16829 19.0492C5.95774 18.6946 5.68901 18.4065 5.3621 18.1848C5.0352 17.9632 4.76093 17.8302 4.5393 17.7859L4.20685 17.736C3.97414 17.736 3.81345 17.761 3.7248 17.8108C3.63615 17.8607 3.60845 17.9244 3.64169 18.002C3.67493 18.0796 3.7248 18.1571 3.79129 18.2347C3.85778 18.3123 3.92981 18.3788 4.00738 18.4342L4.12374 18.5173C4.36753 18.6281 4.60856 18.8387 4.84681 19.1489C5.08506 19.4592 5.2596 19.7418 5.37041 19.9967L5.53664 20.379C5.6807 20.8001 5.92449 21.1408 6.26802 21.4013C6.61155 21.6617 6.98278 21.8279 7.38172 21.8999C7.78065 21.972 8.16574 22.0107 8.53697 22.0163C8.9082 22.0218 9.21571 22.0024 9.45951 21.9581L9.84182 21.8916C9.84182 22.3127 9.84459 22.8031 9.85013 23.3627C9.85567 23.9223 9.85845 24.2243 9.85845 24.2686C9.85845 24.4681 9.78642 24.6343 9.64235 24.7673C9.49829 24.9003 9.27666 24.9391 8.97746 24.8836C6.40654 24.0304 4.30935 22.4928 2.68591 20.2709C1.06246 18.0491 0.250732 15.5474 0.250732 12.766C0.250732 10.4499 0.821433 8.31394 1.96283 6.35805C3.10423 4.40215 4.65288 2.8535 6.60878 1.7121C8.56467 0.5707 10.7006 0 13.0167 0ZM5.08783 18.3344C5.12108 18.2569 5.08229 18.1904 4.97148 18.135C4.86066 18.1017 4.78863 18.1128 4.75539 18.1682C4.72214 18.2458 4.76093 18.3123 4.87174 18.3677C4.97148 18.4342 5.04351 18.4231 5.08783 18.3344ZM5.60313 18.8996C5.6807 18.8442 5.66962 18.7555 5.56988 18.6336C5.45907 18.5339 5.37041 18.5173 5.30392 18.5838C5.22635 18.6392 5.23743 18.7278 5.33717 18.8497C5.44798 18.9605 5.53664 18.9772 5.60313 18.8996ZM6.1018 19.6476C6.20153 19.57 6.20153 19.4648 6.1018 19.3318C6.01314 19.1877 5.91895 19.1545 5.81922 19.232C5.71948 19.2875 5.71948 19.3872 5.81922 19.5312C5.91895 19.6753 6.01314 19.7141 6.1018 19.6476ZM6.79993 20.3457C6.88859 20.2571 6.86642 20.1518 6.73345 20.0299C6.60047 19.8969 6.48965 19.8803 6.401 19.9801C6.30126 20.0687 6.32343 20.174 6.46749 20.2959C6.60047 20.4289 6.71128 20.4455 6.79993 20.3457ZM7.74741 20.7613C7.78065 20.6394 7.70862 20.5508 7.53132 20.4953C7.36509 20.451 7.25982 20.4898 7.21549 20.6117C7.17117 20.7336 7.2432 20.8167 7.43158 20.861C7.59781 20.9275 7.70308 20.8943 7.74741 20.7613ZM8.79462 20.8444C8.79462 20.7004 8.70042 20.6394 8.51204 20.6616C8.33473 20.6616 8.24608 20.7225 8.24608 20.8444C8.24608 20.9885 8.34027 21.0494 8.52866 21.0273C8.70596 21.0273 8.79462 20.9663 8.79462 20.8444ZM9.75871 20.6782C9.73655 20.5563 9.63681 20.5064 9.45951 20.5286C9.2822 20.5618 9.20463 20.6449 9.2268 20.7779C9.24896 20.9109 9.34869 20.9552 9.526 20.9109C9.7033 20.8666 9.78087 20.789 9.75871 20.6782Z" fill="#D4D4D8"/>
</svg>
