<svg width="32" height="25" viewBox="0 0 32 25" fill="none" xmlns="http://www.w3.org/2000/svg">
<path d="M31.0156 2.96875C30.1432 4.24479 29.0886 5.33203 27.8516 6.23047C27.8646 6.41276 27.8711 6.6862 27.8711 7.05078C27.8711 8.74349 27.6237 10.4329 27.1289 12.1191C26.6341 13.8053 25.8822 15.4232 24.8731 16.9727C23.8639 18.5221 22.6628 19.8926 21.2695 21.084C19.8763 22.2754 18.1966 23.2259 16.2305 23.9355C14.2643 24.6452 12.1615 25 9.92188 25C6.39323 25 3.16406 24.056 0.234375 22.168C0.690104 22.2201 1.19792 22.2461 1.75781 22.2461C4.6875 22.2461 7.29818 21.3477 9.58985 19.5508C8.22266 19.5247 6.9987 19.1048 5.91797 18.291C4.83724 17.4772 4.09505 16.4388 3.69141 15.1758C4.1211 15.2409 4.51823 15.2734 4.88281 15.2734C5.44271 15.2734 5.9961 15.2018 6.54297 15.0586C5.08464 14.7591 3.87695 14.0332 2.91992 12.8809C1.96289 11.7285 1.48438 10.3906 1.48438 8.86719V8.78906C2.36979 9.28385 3.32031 9.55078 4.33594 9.58984C3.47656 9.01693 2.79297 8.26823 2.28516 7.34375C1.77734 6.41927 1.52344 5.41667 1.52344 4.33594C1.52344 3.1901 1.8099 2.12891 2.38281 1.15234C3.95834 3.09245 5.87565 4.64518 8.13477 5.81055C10.3939 6.97591 12.8125 7.6237 15.3906 7.75391C15.2865 7.25911 15.2344 6.77734 15.2344 6.30859C15.2344 4.5638 15.8496 3.07617 17.0801 1.8457C18.3106 0.615234 19.7982 0 21.543 0C23.3659 0 24.9024 0.664062 26.1524 1.99219C27.5716 1.71875 28.9063 1.21094 30.1563 0.46875C29.6745 1.96615 28.75 3.125 27.3828 3.94531C28.5938 3.8151 29.8047 3.48958 31.0156 2.96875Z" fill="#D4D4D8"/>
</svg>
